<svg width="1120" height="200" viewBox="0 0 1120 200" fill="none" xmlns="http://www.w3.org/2000/svg">
<rect x="800" width="320" height="200" rx="8" fill="#212133"/>
<circle cx="816" cy="16" r="4" fill="#EF4444"/>
<circle cx="830" cy="16" r="4" fill="#F59E0B"/>
<circle cx="844" cy="16" r="4" fill="#10B981"/>
<path d="M972.549 74.9894L957.832 95.6754C957.774 95.7565 957.7 95.8258 957.614 95.8794C957.528 95.933 957.432 95.9697 957.332 95.9876C957.231 96.0054 957.128 96.004 957.028 95.9834C956.928 95.9629 956.833 95.9235 956.749 95.8676C956.665 95.8117 956.593 95.7404 956.537 95.6577C956.482 95.575 956.444 95.4826 956.425 95.3857C956.407 95.2888 956.408 95.1894 956.429 95.093C956.451 94.9967 956.492 94.9053 956.55 94.8242L971.267 74.1391C971.384 73.9753 971.564 73.8629 971.767 73.8268C971.97 73.7906 972.179 73.8337 972.349 73.9464C972.519 74.0592 972.636 74.2324 972.673 74.428C972.711 74.6236 972.666 74.8255 972.549 74.9894V74.9894ZM970.614 71.3029L956.235 91.5624C956.118 91.7263 955.938 91.8386 955.735 91.8747C955.532 91.9107 955.322 91.8676 955.152 91.7547C954.982 91.6418 954.865 91.4685 954.828 91.2728C954.791 91.0771 954.835 90.8751 954.953 90.7113L969.333 70.4518C969.45 70.2879 969.63 70.1756 969.833 70.1396C970.036 70.1035 970.245 70.1467 970.415 70.2595C970.586 70.3724 970.702 70.5457 970.739 70.7414C970.777 70.9371 970.732 71.1391 970.615 71.3029H970.614ZM966.242 49.1788L949.57 72.6599H965.212L964.16 74.1588H947.656C947.487 74.0478 947.37 73.8771 947.331 73.6838C947.292 73.4904 947.333 73.2899 947.446 73.1256L964.916 48.3276C965.032 48.1646 965.209 48.0519 965.41 48.014C965.611 47.9761 965.819 48.016 965.99 48.1251C966.358 48.3508 966.471 48.821 966.242 49.1788Z" fill="white"/>
<path d="M967.799 53.6752L956.802 69.1749H967.692L966.62 70.6738H953.859L954.911 69.1749L966.517 52.8445C966.64 52.7048 966.813 52.6138 967.002 52.5889C967.191 52.564 967.383 52.6069 967.542 52.7095C967.7 52.812 967.814 52.9671 967.861 53.1451C967.908 53.3232 967.886 53.5118 967.799 53.6752V53.6752Z" fill="white"/>
<path d="M886.828 130V118.578H888.695V128.398H893.531V130H886.828ZM897.141 130H895.305V121.359H897.141V130ZM895.195 119.07C895.195 118.742 895.284 118.49 895.461 118.312C895.643 118.135 895.901 118.047 896.234 118.047C896.557 118.047 896.807 118.135 896.984 118.312C897.167 118.49 897.258 118.742 897.258 119.07C897.258 119.383 897.167 119.63 896.984 119.812C896.807 119.99 896.557 120.078 896.234 120.078C895.901 120.078 895.643 119.99 895.461 119.812C895.284 119.63 895.195 119.383 895.195 119.07ZM907.07 121.359V122.367L905.594 122.641C905.729 122.823 905.841 123.047 905.93 123.312C906.018 123.578 906.062 123.859 906.062 124.156C906.062 125.047 905.755 125.747 905.141 126.258C904.526 126.768 903.68 127.023 902.602 127.023C902.326 127.023 902.076 127.003 901.852 126.961C901.456 127.206 901.258 127.492 901.258 127.82C901.258 128.018 901.349 128.167 901.531 128.266C901.719 128.365 902.06 128.414 902.555 128.414H904.062C905.016 128.414 905.74 128.617 906.234 129.023C906.729 129.43 906.977 130.016 906.977 130.781C906.977 131.76 906.573 132.516 905.766 133.047C904.958 133.578 903.792 133.844 902.266 133.844C901.089 133.844 900.19 133.635 899.57 133.219C898.951 132.802 898.641 132.208 898.641 131.438C898.641 130.906 898.807 130.458 899.141 130.094C899.479 129.734 899.951 129.484 900.555 129.344C900.31 129.24 900.107 129.073 899.945 128.844C899.789 128.609 899.711 128.365 899.711 128.109C899.711 127.786 899.802 127.513 899.984 127.289C900.167 127.065 900.438 126.844 900.797 126.625C900.349 126.432 899.984 126.12 899.703 125.688C899.427 125.25 899.289 124.74 899.289 124.156C899.289 123.219 899.583 122.492 900.172 121.977C900.766 121.461 901.609 121.203 902.703 121.203C902.948 121.203 903.203 121.221 903.469 121.258C903.74 121.289 903.943 121.323 904.078 121.359H907.07ZM900.281 131.344C900.281 131.74 900.458 132.044 900.812 132.258C901.172 132.471 901.674 132.578 902.32 132.578C903.32 132.578 904.065 132.435 904.555 132.148C905.044 131.862 905.289 131.482 905.289 131.008C905.289 130.633 905.154 130.365 904.883 130.203C904.617 130.047 904.12 129.969 903.391 129.969H902C901.474 129.969 901.055 130.091 900.742 130.336C900.435 130.586 900.281 130.922 900.281 131.344ZM901.07 124.156C901.07 124.698 901.208 125.115 901.484 125.406C901.766 125.698 902.167 125.844 902.688 125.844C903.75 125.844 904.281 125.276 904.281 124.141C904.281 123.578 904.148 123.146 903.883 122.844C903.622 122.536 903.224 122.383 902.688 122.383C902.156 122.383 901.753 122.534 901.477 122.836C901.206 123.138 901.07 123.578 901.07 124.156ZM916.281 130H914.438V124.688C914.438 124.021 914.302 123.523 914.031 123.195C913.766 122.867 913.341 122.703 912.758 122.703C911.987 122.703 911.419 122.935 911.055 123.398C910.695 123.857 910.516 124.628 910.516 125.711V130H908.68V117.844H910.516V120.93C910.516 121.424 910.484 121.953 910.422 122.516H910.539C910.789 122.099 911.135 121.776 911.578 121.547C912.026 121.318 912.547 121.203 913.141 121.203C915.234 121.203 916.281 122.258 916.281 124.367V130ZM922.055 128.672C922.503 128.672 922.951 128.602 923.398 128.461V129.844C923.195 129.932 922.932 130.005 922.609 130.062C922.292 130.125 921.961 130.156 921.617 130.156C919.878 130.156 919.008 129.24 919.008 127.406V122.75H917.828V121.938L919.094 121.266L919.719 119.438H920.852V121.359H923.312V122.75H920.852V127.375C920.852 127.818 920.961 128.146 921.18 128.359C921.404 128.568 921.695 128.672 922.055 128.672ZM932.734 130H930.891V124.688C930.891 124.021 930.755 123.523 930.484 123.195C930.219 122.867 929.794 122.703 929.211 122.703C928.435 122.703 927.867 122.932 927.508 123.391C927.148 123.849 926.969 124.617 926.969 125.695V130H925.133V121.359H926.57L926.828 122.492H926.922C927.182 122.081 927.552 121.763 928.031 121.539C928.51 121.315 929.042 121.203 929.625 121.203C931.698 121.203 932.734 122.258 932.734 124.367V130ZM937.125 130H935.289V121.359H937.125V130ZM935.18 119.07C935.18 118.742 935.268 118.49 935.445 118.312C935.628 118.135 935.885 118.047 936.219 118.047C936.542 118.047 936.792 118.135 936.969 118.312C937.151 118.49 937.242 118.742 937.242 119.07C937.242 119.383 937.151 119.63 936.969 119.812C936.792 119.99 936.542 120.078 936.219 120.078C935.885 120.078 935.628 119.99 935.445 119.812C935.268 119.63 935.18 119.383 935.18 119.07ZM947.359 130H945.516V124.688C945.516 124.021 945.38 123.523 945.109 123.195C944.844 122.867 944.419 122.703 943.836 122.703C943.06 122.703 942.492 122.932 942.133 123.391C941.773 123.849 941.594 124.617 941.594 125.695V130H939.758V121.359H941.195L941.453 122.492H941.547C941.807 122.081 942.177 121.763 942.656 121.539C943.135 121.315 943.667 121.203 944.25 121.203C946.323 121.203 947.359 122.258 947.359 124.367V130ZM957.211 121.359V122.367L955.734 122.641C955.87 122.823 955.982 123.047 956.07 123.312C956.159 123.578 956.203 123.859 956.203 124.156C956.203 125.047 955.896 125.747 955.281 126.258C954.667 126.768 953.82 127.023 952.742 127.023C952.466 127.023 952.216 127.003 951.992 126.961C951.596 127.206 951.398 127.492 951.398 127.82C951.398 128.018 951.49 128.167 951.672 128.266C951.859 128.365 952.201 128.414 952.695 128.414H954.203C955.156 128.414 955.88 128.617 956.375 129.023C956.87 129.43 957.117 130.016 957.117 130.781C957.117 131.76 956.714 132.516 955.906 133.047C955.099 133.578 953.932 133.844 952.406 133.844C951.229 133.844 950.331 133.635 949.711 133.219C949.091 132.802 948.781 132.208 948.781 131.438C948.781 130.906 948.948 130.458 949.281 130.094C949.62 129.734 950.091 129.484 950.695 129.344C950.451 129.24 950.247 129.073 950.086 128.844C949.93 128.609 949.852 128.365 949.852 128.109C949.852 127.786 949.943 127.513 950.125 127.289C950.307 127.065 950.578 126.844 950.938 126.625C950.49 126.432 950.125 126.12 949.844 125.688C949.568 125.25 949.43 124.74 949.43 124.156C949.43 123.219 949.724 122.492 950.312 121.977C950.906 121.461 951.75 121.203 952.844 121.203C953.089 121.203 953.344 121.221 953.609 121.258C953.88 121.289 954.083 121.323 954.219 121.359H957.211ZM950.422 131.344C950.422 131.74 950.599 132.044 950.953 132.258C951.312 132.471 951.815 132.578 952.461 132.578C953.461 132.578 954.206 132.435 954.695 132.148C955.185 131.862 955.43 131.482 955.43 131.008C955.43 130.633 955.294 130.365 955.023 130.203C954.758 130.047 954.26 129.969 953.531 129.969H952.141C951.615 129.969 951.195 130.091 950.883 130.336C950.576 130.586 950.422 130.922 950.422 131.344ZM951.211 124.156C951.211 124.698 951.349 125.115 951.625 125.406C951.906 125.698 952.307 125.844 952.828 125.844C953.891 125.844 954.422 125.276 954.422 124.141C954.422 123.578 954.289 123.146 954.023 122.844C953.763 122.536 953.365 122.383 952.828 122.383C952.297 122.383 951.893 122.534 951.617 122.836C951.346 123.138 951.211 123.578 951.211 124.156ZM967.117 130H965.25V120.18H961.891V118.578H970.477V120.18H967.117V130ZM975.812 130.156C974.469 130.156 973.417 129.766 972.656 128.984C971.901 128.198 971.523 127.117 971.523 125.742C971.523 124.331 971.875 123.221 972.578 122.414C973.281 121.607 974.247 121.203 975.477 121.203C976.617 121.203 977.518 121.549 978.18 122.242C978.841 122.935 979.172 123.888 979.172 125.102V126.094H973.414C973.44 126.932 973.667 127.578 974.094 128.031C974.521 128.479 975.122 128.703 975.898 128.703C976.409 128.703 976.883 128.656 977.32 128.562C977.763 128.464 978.237 128.302 978.742 128.078V129.57C978.294 129.784 977.841 129.935 977.383 130.023C976.924 130.112 976.401 130.156 975.812 130.156ZM975.477 122.594C974.893 122.594 974.424 122.779 974.07 123.148C973.721 123.518 973.513 124.057 973.445 124.766H977.367C977.357 124.052 977.185 123.513 976.852 123.148C976.518 122.779 976.06 122.594 975.477 122.594ZM985.641 121.203C986.01 121.203 986.315 121.229 986.555 121.281L986.375 122.992C986.115 122.93 985.844 122.898 985.562 122.898C984.828 122.898 984.232 123.138 983.773 123.617C983.32 124.096 983.094 124.719 983.094 125.484V130H981.258V121.359H982.695L982.938 122.883H983.031C983.318 122.367 983.69 121.958 984.148 121.656C984.612 121.354 985.109 121.203 985.641 121.203ZM995.445 130H993.602V124.672C993.602 124.01 993.477 123.518 993.227 123.195C992.977 122.867 992.586 122.703 992.055 122.703C991.346 122.703 990.826 122.935 990.492 123.398C990.164 123.857 990 124.622 990 125.695V130H988.164V121.359H989.602L989.859 122.492H989.953C990.193 122.081 990.539 121.763 990.992 121.539C991.451 121.315 991.953 121.203 992.5 121.203C993.828 121.203 994.708 121.656 995.141 122.562H995.266C995.521 122.135 995.88 121.802 996.344 121.562C996.807 121.323 997.339 121.203 997.938 121.203C998.969 121.203 999.719 121.464 1000.19 121.984C1000.66 122.505 1000.9 123.299 1000.9 124.367V130H999.062V124.672C999.062 124.01 998.935 123.518 998.68 123.195C998.43 122.867 998.039 122.703 997.508 122.703C996.794 122.703 996.271 122.927 995.938 123.375C995.609 123.818 995.445 124.5 995.445 125.422V130ZM1005.3 130H1003.46V121.359H1005.3V130ZM1003.35 119.07C1003.35 118.742 1003.44 118.49 1003.62 118.312C1003.8 118.135 1004.06 118.047 1004.39 118.047C1004.71 118.047 1004.96 118.135 1005.14 118.312C1005.32 118.49 1005.41 118.742 1005.41 119.07C1005.41 119.383 1005.32 119.63 1005.14 119.812C1004.96 119.99 1004.71 120.078 1004.39 120.078C1004.06 120.078 1003.8 119.99 1003.62 119.812C1003.44 119.63 1003.35 119.383 1003.35 119.07ZM1015.53 130H1013.69V124.688C1013.69 124.021 1013.55 123.523 1013.28 123.195C1013.02 122.867 1012.59 122.703 1012.01 122.703C1011.23 122.703 1010.66 122.932 1010.3 123.391C1009.95 123.849 1009.77 124.617 1009.77 125.695V130H1007.93V121.359H1009.37L1009.62 122.492H1009.72C1009.98 122.081 1010.35 121.763 1010.83 121.539C1011.31 121.315 1011.84 121.203 1012.42 121.203C1014.49 121.203 1015.53 122.258 1015.53 124.367V130ZM1023.49 130L1023.12 128.797H1023.06C1022.65 129.323 1022.23 129.682 1021.8 129.875C1021.38 130.062 1020.84 130.156 1020.18 130.156C1019.33 130.156 1018.67 129.927 1018.19 129.469C1017.71 129.01 1017.48 128.362 1017.48 127.523C1017.48 126.633 1017.81 125.961 1018.47 125.508C1019.13 125.055 1020.14 124.807 1021.49 124.766L1022.98 124.719V124.258C1022.98 123.706 1022.85 123.294 1022.59 123.023C1022.34 122.747 1021.94 122.609 1021.4 122.609C1020.96 122.609 1020.53 122.674 1020.12 122.805C1019.72 122.935 1019.33 123.089 1018.95 123.266L1018.36 121.953C1018.83 121.708 1019.34 121.523 1019.9 121.398C1020.46 121.268 1020.98 121.203 1021.48 121.203C1022.58 121.203 1023.4 121.443 1023.96 121.922C1024.52 122.401 1024.8 123.154 1024.8 124.18V130H1023.49ZM1020.76 128.75C1021.42 128.75 1021.96 128.565 1022.36 128.195C1022.77 127.82 1022.97 127.297 1022.97 126.625V125.875L1021.86 125.922C1020.99 125.953 1020.36 126.099 1019.97 126.359C1019.58 126.615 1019.38 127.008 1019.38 127.539C1019.38 127.924 1019.5 128.224 1019.73 128.438C1019.96 128.646 1020.3 128.75 1020.76 128.75ZM1029.2 130H1027.37V117.844H1029.2V130ZM902.141 154H900.305V145.359H902.141V154ZM900.195 143.07C900.195 142.742 900.284 142.49 900.461 142.312C900.643 142.135 900.901 142.047 901.234 142.047C901.557 142.047 901.807 142.135 901.984 142.312C902.167 142.49 902.258 142.742 902.258 143.07C902.258 143.383 902.167 143.63 901.984 143.812C901.807 143.99 901.557 144.078 901.234 144.078C900.901 144.078 900.643 143.99 900.461 143.812C900.284 143.63 900.195 143.383 900.195 143.07ZM912.375 154H910.531V148.688C910.531 148.021 910.396 147.523 910.125 147.195C909.859 146.867 909.435 146.703 908.852 146.703C908.076 146.703 907.508 146.932 907.148 147.391C906.789 147.849 906.609 148.617 906.609 149.695V154H904.773V145.359H906.211L906.469 146.492H906.562C906.823 146.081 907.193 145.763 907.672 145.539C908.151 145.315 908.682 145.203 909.266 145.203C911.339 145.203 912.375 146.258 912.375 148.367V154ZM917.773 145.359H919.773L921.531 150.258C921.797 150.956 921.974 151.612 922.062 152.227H922.125C922.172 151.94 922.258 151.594 922.383 151.188C922.508 150.776 923.169 148.833 924.367 145.359H926.352L922.656 155.148C921.984 156.945 920.865 157.844 919.297 157.844C918.891 157.844 918.495 157.799 918.109 157.711V156.258C918.385 156.32 918.701 156.352 919.055 156.352C919.94 156.352 920.562 155.839 920.922 154.812L921.242 154L917.773 145.359ZM935.328 149.664C935.328 151.076 934.966 152.177 934.242 152.969C933.518 153.76 932.51 154.156 931.219 154.156C930.411 154.156 929.698 153.974 929.078 153.609C928.458 153.245 927.982 152.721 927.648 152.039C927.315 151.357 927.148 150.565 927.148 149.664C927.148 148.263 927.508 147.169 928.227 146.383C928.945 145.596 929.958 145.203 931.266 145.203C932.516 145.203 933.505 145.607 934.234 146.414C934.964 147.216 935.328 148.299 935.328 149.664ZM929.039 149.664C929.039 151.659 929.776 152.656 931.25 152.656C932.708 152.656 933.438 151.659 933.438 149.664C933.438 147.69 932.703 146.703 931.234 146.703C930.464 146.703 929.904 146.958 929.555 147.469C929.211 147.979 929.039 148.711 929.039 149.664ZM943.539 154L943.281 152.867H943.188C942.932 153.268 942.568 153.583 942.094 153.812C941.625 154.042 941.089 154.156 940.484 154.156C939.438 154.156 938.656 153.896 938.141 153.375C937.625 152.854 937.367 152.065 937.367 151.008V145.359H939.219V150.688C939.219 151.349 939.354 151.846 939.625 152.18C939.896 152.508 940.32 152.672 940.898 152.672C941.669 152.672 942.234 152.443 942.594 151.984C942.958 151.521 943.141 150.747 943.141 149.664V145.359H944.984V154H943.539ZM951.984 145.203C952.354 145.203 952.659 145.229 952.898 145.281L952.719 146.992C952.458 146.93 952.188 146.898 951.906 146.898C951.172 146.898 950.576 147.138 950.117 147.617C949.664 148.096 949.438 148.719 949.438 149.484V154H947.602V145.359H949.039L949.281 146.883H949.375C949.661 146.367 950.034 145.958 950.492 145.656C950.956 145.354 951.453 145.203 951.984 145.203ZM963.078 145.203C964.156 145.203 964.995 145.594 965.594 146.375C966.198 147.156 966.5 148.253 966.5 149.664C966.5 151.081 966.195 152.185 965.586 152.977C964.977 153.763 964.13 154.156 963.047 154.156C961.953 154.156 961.104 153.763 960.5 152.977H960.375L960.039 154H958.664V141.844H960.5V144.734C960.5 144.948 960.49 145.266 960.469 145.688C960.448 146.109 960.432 146.378 960.422 146.492H960.5C961.083 145.633 961.943 145.203 963.078 145.203ZM962.602 146.703C961.862 146.703 961.328 146.922 961 147.359C960.677 147.792 960.51 148.518 960.5 149.539V149.664C960.5 150.716 960.667 151.479 961 151.953C961.333 152.422 961.878 152.656 962.633 152.656C963.284 152.656 963.776 152.398 964.109 151.883C964.448 151.367 964.617 150.622 964.617 149.648C964.617 147.685 963.945 146.703 962.602 146.703ZM973.016 145.203C973.385 145.203 973.69 145.229 973.93 145.281L973.75 146.992C973.49 146.93 973.219 146.898 972.938 146.898C972.203 146.898 971.607 147.138 971.148 147.617C970.695 148.096 970.469 148.719 970.469 149.484V154H968.633V145.359H970.07L970.312 146.883H970.406C970.693 146.367 971.065 145.958 971.523 145.656C971.987 145.354 972.484 145.203 973.016 145.203ZM983.203 149.664C983.203 151.076 982.841 152.177 982.117 152.969C981.393 153.76 980.385 154.156 979.094 154.156C978.286 154.156 977.573 153.974 976.953 153.609C976.333 153.245 975.857 152.721 975.523 152.039C975.19 151.357 975.023 150.565 975.023 149.664C975.023 148.263 975.383 147.169 976.102 146.383C976.82 145.596 977.833 145.203 979.141 145.203C980.391 145.203 981.38 145.607 982.109 146.414C982.839 147.216 983.203 148.299 983.203 149.664ZM976.914 149.664C976.914 151.659 977.651 152.656 979.125 152.656C980.583 152.656 981.312 151.659 981.312 149.664C981.312 147.69 980.578 146.703 979.109 146.703C978.339 146.703 977.779 146.958 977.43 147.469C977.086 147.979 976.914 148.711 976.914 149.664ZM992.406 154L991.289 149.969C991.154 149.542 990.909 148.549 990.555 146.992H990.484C990.182 148.398 989.943 149.396 989.766 149.984L988.617 154H986.586L984.164 145.359H986.039L987.141 149.617C987.391 150.669 987.568 151.57 987.672 152.32H987.719C987.771 151.94 987.849 151.505 987.953 151.016C988.062 150.521 988.156 150.151 988.234 149.906L989.547 145.359H991.562L992.836 149.906C992.914 150.161 993.01 150.552 993.125 151.078C993.245 151.604 993.315 152.013 993.336 152.305H993.398C993.477 151.664 993.659 150.768 993.945 149.617L995.062 145.359H996.906L994.469 154H992.406ZM1004.2 151.539C1004.2 152.383 1003.9 153.031 1003.28 153.484C1002.67 153.932 1001.79 154.156 1000.64 154.156C999.49 154.156 998.565 153.982 997.867 153.633V152.047C998.883 152.516 999.828 152.75 1000.7 152.75C1001.83 152.75 1002.4 152.409 1002.4 151.727C1002.4 151.508 1002.34 151.326 1002.21 151.18C1002.09 151.034 1001.88 150.883 1001.59 150.727C1001.31 150.57 1000.91 150.393 1000.4 150.195C999.404 149.81 998.729 149.424 998.375 149.039C998.026 148.654 997.852 148.154 997.852 147.539C997.852 146.799 998.148 146.227 998.742 145.82C999.341 145.409 1000.15 145.203 1001.18 145.203C1002.2 145.203 1003.16 145.409 1004.06 145.82L1003.47 147.203C1002.54 146.818 1001.75 146.625 1001.12 146.625C1000.15 146.625 999.664 146.901 999.664 147.453C999.664 147.724 999.789 147.953 1000.04 148.141C1000.29 148.328 1000.85 148.586 1001.7 148.914C1002.41 149.19 1002.93 149.443 1003.25 149.672C1003.57 149.901 1003.81 150.167 1003.97 150.469C1004.12 150.766 1004.2 151.122 1004.2 151.539ZM1009.97 154.156C1008.62 154.156 1007.57 153.766 1006.81 152.984C1006.06 152.198 1005.68 151.117 1005.68 149.742C1005.68 148.331 1006.03 147.221 1006.73 146.414C1007.44 145.607 1008.4 145.203 1009.63 145.203C1010.77 145.203 1011.67 145.549 1012.34 146.242C1013 146.935 1013.33 147.888 1013.33 149.102V150.094H1007.57C1007.6 150.932 1007.82 151.578 1008.25 152.031C1008.68 152.479 1009.28 152.703 1010.05 152.703C1010.57 152.703 1011.04 152.656 1011.48 152.562C1011.92 152.464 1012.39 152.302 1012.9 152.078V153.57C1012.45 153.784 1012 153.935 1011.54 154.023C1011.08 154.112 1010.56 154.156 1009.97 154.156ZM1009.63 146.594C1009.05 146.594 1008.58 146.779 1008.23 147.148C1007.88 147.518 1007.67 148.057 1007.6 148.766H1011.52C1011.51 148.052 1011.34 147.513 1011.01 147.148C1010.67 146.779 1010.22 146.594 1009.63 146.594ZM1019.8 145.203C1020.17 145.203 1020.47 145.229 1020.71 145.281L1020.53 146.992C1020.27 146.93 1020 146.898 1019.72 146.898C1018.98 146.898 1018.39 147.138 1017.93 147.617C1017.48 148.096 1017.25 148.719 1017.25 149.484V154H1015.41V145.359H1016.85L1017.09 146.883H1017.19C1017.47 146.367 1017.85 145.958 1018.3 145.656C1018.77 145.354 1019.27 145.203 1019.8 145.203Z" fill="white"/>
<rect width="320" height="200" rx="12" fill="#212133"/>
<path d="M172.549 74.9894L157.832 95.6754C157.774 95.7565 157.7 95.8258 157.614 95.8794C157.528 95.933 157.432 95.9697 157.332 95.9876C157.231 96.0054 157.128 96.004 157.028 95.9834C156.928 95.9629 156.833 95.9235 156.749 95.8676C156.665 95.8117 156.593 95.7404 156.537 95.6577C156.482 95.575 156.444 95.4826 156.425 95.3857C156.407 95.2888 156.408 95.1894 156.429 95.093C156.451 94.9967 156.492 94.9053 156.55 94.8242L171.267 74.1391C171.384 73.9753 171.564 73.8629 171.767 73.8268C171.97 73.7906 172.179 73.8337 172.349 73.9464C172.519 74.0592 172.636 74.2324 172.673 74.428C172.711 74.6236 172.666 74.8255 172.549 74.9894V74.9894ZM170.614 71.3029L156.235 91.5624C156.118 91.7263 155.938 91.8386 155.735 91.8747C155.532 91.9107 155.322 91.8676 155.152 91.7547C154.982 91.6418 154.865 91.4685 154.828 91.2728C154.791 91.0771 154.835 90.8751 154.953 90.7113L169.333 70.4518C169.45 70.2879 169.63 70.1756 169.833 70.1396C170.036 70.1035 170.245 70.1467 170.415 70.2595C170.586 70.3724 170.702 70.5457 170.739 70.7414C170.777 70.9371 170.732 71.1391 170.615 71.3029H170.614ZM166.242 49.1788L149.57 72.6599H165.212L164.16 74.1588H147.656C147.487 74.0478 147.37 73.8771 147.331 73.6838C147.292 73.4904 147.333 73.2899 147.446 73.1256L164.916 48.3276C165.032 48.1646 165.209 48.0519 165.41 48.014C165.611 47.9761 165.819 48.016 165.99 48.1251C166.358 48.3508 166.471 48.821 166.242 49.1788Z" fill="white"/>
<path d="M167.799 53.6752L156.802 69.1749H167.692L166.62 70.6738H153.859L154.911 69.1749L166.517 52.8445C166.64 52.7048 166.813 52.6138 167.002 52.5889C167.191 52.564 167.383 52.6069 167.542 52.7095C167.7 52.812 167.814 52.9671 167.861 53.1451C167.908 53.3232 167.886 53.5118 167.799 53.6752V53.6752Z" fill="white"/>
<path d="M86.8281 130V118.578H88.6953V128.398H93.5312V130H86.8281ZM97.1406 130H95.3047V121.359H97.1406V130ZM95.1953 119.07C95.1953 118.742 95.2839 118.49 95.4609 118.312C95.6432 118.135 95.901 118.047 96.2344 118.047C96.5573 118.047 96.8073 118.135 96.9844 118.312C97.1667 118.49 97.2578 118.742 97.2578 119.07C97.2578 119.383 97.1667 119.63 96.9844 119.812C96.8073 119.99 96.5573 120.078 96.2344 120.078C95.901 120.078 95.6432 119.99 95.4609 119.812C95.2839 119.63 95.1953 119.383 95.1953 119.07ZM107.07 121.359V122.367L105.594 122.641C105.729 122.823 105.841 123.047 105.93 123.312C106.018 123.578 106.062 123.859 106.062 124.156C106.062 125.047 105.755 125.747 105.141 126.258C104.526 126.768 103.68 127.023 102.602 127.023C102.326 127.023 102.076 127.003 101.852 126.961C101.456 127.206 101.258 127.492 101.258 127.82C101.258 128.018 101.349 128.167 101.531 128.266C101.719 128.365 102.06 128.414 102.555 128.414H104.062C105.016 128.414 105.74 128.617 106.234 129.023C106.729 129.43 106.977 130.016 106.977 130.781C106.977 131.76 106.573 132.516 105.766 133.047C104.958 133.578 103.792 133.844 102.266 133.844C101.089 133.844 100.19 133.635 99.5703 133.219C98.9505 132.802 98.6406 132.208 98.6406 131.438C98.6406 130.906 98.8073 130.458 99.1406 130.094C99.4792 129.734 99.9505 129.484 100.555 129.344C100.31 129.24 100.107 129.073 99.9453 128.844C99.7891 128.609 99.7109 128.365 99.7109 128.109C99.7109 127.786 99.8021 127.513 99.9844 127.289C100.167 127.065 100.438 126.844 100.797 126.625C100.349 126.432 99.9844 126.12 99.7031 125.688C99.4271 125.25 99.2891 124.74 99.2891 124.156C99.2891 123.219 99.5833 122.492 100.172 121.977C100.766 121.461 101.609 121.203 102.703 121.203C102.948 121.203 103.203 121.221 103.469 121.258C103.74 121.289 103.943 121.323 104.078 121.359H107.07ZM100.281 131.344C100.281 131.74 100.458 132.044 100.812 132.258C101.172 132.471 101.674 132.578 102.32 132.578C103.32 132.578 104.065 132.435 104.555 132.148C105.044 131.862 105.289 131.482 105.289 131.008C105.289 130.633 105.154 130.365 104.883 130.203C104.617 130.047 104.12 129.969 103.391 129.969H102C101.474 129.969 101.055 130.091 100.742 130.336C100.435 130.586 100.281 130.922 100.281 131.344ZM101.07 124.156C101.07 124.698 101.208 125.115 101.484 125.406C101.766 125.698 102.167 125.844 102.688 125.844C103.75 125.844 104.281 125.276 104.281 124.141C104.281 123.578 104.148 123.146 103.883 122.844C103.622 122.536 103.224 122.383 102.688 122.383C102.156 122.383 101.753 122.534 101.477 122.836C101.206 123.138 101.07 123.578 101.07 124.156ZM116.281 130H114.438V124.688C114.438 124.021 114.302 123.523 114.031 123.195C113.766 122.867 113.341 122.703 112.758 122.703C111.987 122.703 111.419 122.935 111.055 123.398C110.695 123.857 110.516 124.628 110.516 125.711V130H108.68V117.844H110.516V120.93C110.516 121.424 110.484 121.953 110.422 122.516H110.539C110.789 122.099 111.135 121.776 111.578 121.547C112.026 121.318 112.547 121.203 113.141 121.203C115.234 121.203 116.281 122.258 116.281 124.367V130ZM122.055 128.672C122.503 128.672 122.951 128.602 123.398 128.461V129.844C123.195 129.932 122.932 130.005 122.609 130.062C122.292 130.125 121.961 130.156 121.617 130.156C119.878 130.156 119.008 129.24 119.008 127.406V122.75H117.828V121.938L119.094 121.266L119.719 119.438H120.852V121.359H123.312V122.75H120.852V127.375C120.852 127.818 120.961 128.146 121.18 128.359C121.404 128.568 121.695 128.672 122.055 128.672ZM132.734 130H130.891V124.688C130.891 124.021 130.755 123.523 130.484 123.195C130.219 122.867 129.794 122.703 129.211 122.703C128.435 122.703 127.867 122.932 127.508 123.391C127.148 123.849 126.969 124.617 126.969 125.695V130H125.133V121.359H126.57L126.828 122.492H126.922C127.182 122.081 127.552 121.763 128.031 121.539C128.51 121.315 129.042 121.203 129.625 121.203C131.698 121.203 132.734 122.258 132.734 124.367V130ZM137.125 130H135.289V121.359H137.125V130ZM135.18 119.07C135.18 118.742 135.268 118.49 135.445 118.312C135.628 118.135 135.885 118.047 136.219 118.047C136.542 118.047 136.792 118.135 136.969 118.312C137.151 118.49 137.242 118.742 137.242 119.07C137.242 119.383 137.151 119.63 136.969 119.812C136.792 119.99 136.542 120.078 136.219 120.078C135.885 120.078 135.628 119.99 135.445 119.812C135.268 119.63 135.18 119.383 135.18 119.07ZM147.359 130H145.516V124.688C145.516 124.021 145.38 123.523 145.109 123.195C144.844 122.867 144.419 122.703 143.836 122.703C143.06 122.703 142.492 122.932 142.133 123.391C141.773 123.849 141.594 124.617 141.594 125.695V130H139.758V121.359H141.195L141.453 122.492H141.547C141.807 122.081 142.177 121.763 142.656 121.539C143.135 121.315 143.667 121.203 144.25 121.203C146.323 121.203 147.359 122.258 147.359 124.367V130ZM157.211 121.359V122.367L155.734 122.641C155.87 122.823 155.982 123.047 156.07 123.312C156.159 123.578 156.203 123.859 156.203 124.156C156.203 125.047 155.896 125.747 155.281 126.258C154.667 126.768 153.82 127.023 152.742 127.023C152.466 127.023 152.216 127.003 151.992 126.961C151.596 127.206 151.398 127.492 151.398 127.82C151.398 128.018 151.49 128.167 151.672 128.266C151.859 128.365 152.201 128.414 152.695 128.414H154.203C155.156 128.414 155.88 128.617 156.375 129.023C156.87 129.43 157.117 130.016 157.117 130.781C157.117 131.76 156.714 132.516 155.906 133.047C155.099 133.578 153.932 133.844 152.406 133.844C151.229 133.844 150.331 133.635 149.711 133.219C149.091 132.802 148.781 132.208 148.781 131.438C148.781 130.906 148.948 130.458 149.281 130.094C149.62 129.734 150.091 129.484 150.695 129.344C150.451 129.24 150.247 129.073 150.086 128.844C149.93 128.609 149.852 128.365 149.852 128.109C149.852 127.786 149.943 127.513 150.125 127.289C150.307 127.065 150.578 126.844 150.938 126.625C150.49 126.432 150.125 126.12 149.844 125.688C149.568 125.25 149.43 124.74 149.43 124.156C149.43 123.219 149.724 122.492 150.312 121.977C150.906 121.461 151.75 121.203 152.844 121.203C153.089 121.203 153.344 121.221 153.609 121.258C153.88 121.289 154.083 121.323 154.219 121.359H157.211ZM150.422 131.344C150.422 131.74 150.599 132.044 150.953 132.258C151.312 132.471 151.815 132.578 152.461 132.578C153.461 132.578 154.206 132.435 154.695 132.148C155.185 131.862 155.43 131.482 155.43 131.008C155.43 130.633 155.294 130.365 155.023 130.203C154.758 130.047 154.26 129.969 153.531 129.969H152.141C151.615 129.969 151.195 130.091 150.883 130.336C150.576 130.586 150.422 130.922 150.422 131.344ZM151.211 124.156C151.211 124.698 151.349 125.115 151.625 125.406C151.906 125.698 152.307 125.844 152.828 125.844C153.891 125.844 154.422 125.276 154.422 124.141C154.422 123.578 154.289 123.146 154.023 122.844C153.763 122.536 153.365 122.383 152.828 122.383C152.297 122.383 151.893 122.534 151.617 122.836C151.346 123.138 151.211 123.578 151.211 124.156ZM167.117 130H165.25V120.18H161.891V118.578H170.477V120.18H167.117V130ZM175.812 130.156C174.469 130.156 173.417 129.766 172.656 128.984C171.901 128.198 171.523 127.117 171.523 125.742C171.523 124.331 171.875 123.221 172.578 122.414C173.281 121.607 174.247 121.203 175.477 121.203C176.617 121.203 177.518 121.549 178.18 122.242C178.841 122.935 179.172 123.888 179.172 125.102V126.094H173.414C173.44 126.932 173.667 127.578 174.094 128.031C174.521 128.479 175.122 128.703 175.898 128.703C176.409 128.703 176.883 128.656 177.32 128.562C177.763 128.464 178.237 128.302 178.742 128.078V129.57C178.294 129.784 177.841 129.935 177.383 130.023C176.924 130.112 176.401 130.156 175.812 130.156ZM175.477 122.594C174.893 122.594 174.424 122.779 174.07 123.148C173.721 123.518 173.513 124.057 173.445 124.766H177.367C177.357 124.052 177.185 123.513 176.852 123.148C176.518 122.779 176.06 122.594 175.477 122.594ZM185.641 121.203C186.01 121.203 186.315 121.229 186.555 121.281L186.375 122.992C186.115 122.93 185.844 122.898 185.562 122.898C184.828 122.898 184.232 123.138 183.773 123.617C183.32 124.096 183.094 124.719 183.094 125.484V130H181.258V121.359H182.695L182.938 122.883H183.031C183.318 122.367 183.69 121.958 184.148 121.656C184.612 121.354 185.109 121.203 185.641 121.203ZM195.445 130H193.602V124.672C193.602 124.01 193.477 123.518 193.227 123.195C192.977 122.867 192.586 122.703 192.055 122.703C191.346 122.703 190.826 122.935 190.492 123.398C190.164 123.857 190 124.622 190 125.695V130H188.164V121.359H189.602L189.859 122.492H189.953C190.193 122.081 190.539 121.763 190.992 121.539C191.451 121.315 191.953 121.203 192.5 121.203C193.828 121.203 194.708 121.656 195.141 122.562H195.266C195.521 122.135 195.88 121.802 196.344 121.562C196.807 121.323 197.339 121.203 197.938 121.203C198.969 121.203 199.719 121.464 200.188 121.984C200.661 122.505 200.898 123.299 200.898 124.367V130H199.062V124.672C199.062 124.01 198.935 123.518 198.68 123.195C198.43 122.867 198.039 122.703 197.508 122.703C196.794 122.703 196.271 122.927 195.938 123.375C195.609 123.818 195.445 124.5 195.445 125.422V130ZM205.297 130H203.461V121.359H205.297V130ZM203.352 119.07C203.352 118.742 203.44 118.49 203.617 118.312C203.799 118.135 204.057 118.047 204.391 118.047C204.714 118.047 204.964 118.135 205.141 118.312C205.323 118.49 205.414 118.742 205.414 119.07C205.414 119.383 205.323 119.63 205.141 119.812C204.964 119.99 204.714 120.078 204.391 120.078C204.057 120.078 203.799 119.99 203.617 119.812C203.44 119.63 203.352 119.383 203.352 119.07ZM215.531 130H213.688V124.688C213.688 124.021 213.552 123.523 213.281 123.195C213.016 122.867 212.591 122.703 212.008 122.703C211.232 122.703 210.664 122.932 210.305 123.391C209.945 123.849 209.766 124.617 209.766 125.695V130H207.93V121.359H209.367L209.625 122.492H209.719C209.979 122.081 210.349 121.763 210.828 121.539C211.307 121.315 211.839 121.203 212.422 121.203C214.495 121.203 215.531 122.258 215.531 124.367V130ZM223.492 130L223.125 128.797H223.062C222.646 129.323 222.227 129.682 221.805 129.875C221.383 130.062 220.841 130.156 220.18 130.156C219.331 130.156 218.667 129.927 218.188 129.469C217.714 129.01 217.477 128.362 217.477 127.523C217.477 126.633 217.807 125.961 218.469 125.508C219.13 125.055 220.138 124.807 221.492 124.766L222.984 124.719V124.258C222.984 123.706 222.854 123.294 222.594 123.023C222.339 122.747 221.94 122.609 221.398 122.609C220.956 122.609 220.531 122.674 220.125 122.805C219.719 122.935 219.328 123.089 218.953 123.266L218.359 121.953C218.828 121.708 219.341 121.523 219.898 121.398C220.456 121.268 220.982 121.203 221.477 121.203C222.576 121.203 223.404 121.443 223.961 121.922C224.523 122.401 224.805 123.154 224.805 124.18V130H223.492ZM220.758 128.75C221.424 128.75 221.958 128.565 222.359 128.195C222.766 127.82 222.969 127.297 222.969 126.625V125.875L221.859 125.922C220.995 125.953 220.365 126.099 219.969 126.359C219.578 126.615 219.383 127.008 219.383 127.539C219.383 127.924 219.497 128.224 219.727 128.438C219.956 128.646 220.299 128.75 220.758 128.75ZM229.203 130H227.367V117.844H229.203V130ZM76.6094 154H74.7734V145.359H76.6094V154ZM74.6641 143.07C74.6641 142.742 74.7526 142.49 74.9297 142.312C75.112 142.135 75.3698 142.047 75.7031 142.047C76.026 142.047 76.276 142.135 76.4531 142.312C76.6354 142.49 76.7266 142.742 76.7266 143.07C76.7266 143.383 76.6354 143.63 76.4531 143.812C76.276 143.99 76.026 144.078 75.7031 144.078C75.3698 144.078 75.112 143.99 74.9297 143.812C74.7526 143.63 74.6641 143.383 74.6641 143.07ZM86.8438 154H85V148.688C85 148.021 84.8646 147.523 84.5938 147.195C84.3281 146.867 83.9036 146.703 83.3203 146.703C82.5443 146.703 81.9766 146.932 81.6172 147.391C81.2578 147.849 81.0781 148.617 81.0781 149.695V154H79.2422V145.359H80.6797L80.9375 146.492H81.0312C81.2917 146.081 81.6615 145.763 82.1406 145.539C82.6198 145.315 83.151 145.203 83.7344 145.203C85.8073 145.203 86.8438 146.258 86.8438 148.367V154ZM95.2031 151.539C95.2031 152.383 94.8958 153.031 94.2812 153.484C93.6667 153.932 92.7865 154.156 91.6406 154.156C90.4896 154.156 89.5651 153.982 88.8672 153.633V152.047C89.8828 152.516 90.8281 152.75 91.7031 152.75C92.8333 152.75 93.3984 152.409 93.3984 151.727C93.3984 151.508 93.3359 151.326 93.2109 151.18C93.0859 151.034 92.8802 150.883 92.5938 150.727C92.3073 150.57 91.9089 150.393 91.3984 150.195C90.4036 149.81 89.7292 149.424 89.375 149.039C89.026 148.654 88.8516 148.154 88.8516 147.539C88.8516 146.799 89.1484 146.227 89.7422 145.82C90.3411 145.409 91.1536 145.203 92.1797 145.203C93.1953 145.203 94.1562 145.409 95.0625 145.82L94.4688 147.203C93.5365 146.818 92.7526 146.625 92.1172 146.625C91.1484 146.625 90.6641 146.901 90.6641 147.453C90.6641 147.724 90.7891 147.953 91.0391 148.141C91.2943 148.328 91.8464 148.586 92.6953 148.914C93.4089 149.19 93.9271 149.443 94.25 149.672C94.5729 149.901 94.8125 150.167 94.9688 150.469C95.125 150.766 95.2031 151.122 95.2031 151.539ZM100.414 152.672C100.862 152.672 101.31 152.602 101.758 152.461V153.844C101.555 153.932 101.292 154.005 100.969 154.062C100.651 154.125 100.32 154.156 99.9766 154.156C98.237 154.156 97.3672 153.24 97.3672 151.406V146.75H96.1875V145.938L97.4531 145.266L98.0781 143.438H99.2109V145.359H101.672V146.75H99.2109V151.375C99.2109 151.818 99.3203 152.146 99.5391 152.359C99.763 152.568 100.055 152.672 100.414 152.672ZM108.898 154L108.531 152.797H108.469C108.052 153.323 107.633 153.682 107.211 153.875C106.789 154.062 106.247 154.156 105.586 154.156C104.737 154.156 104.073 153.927 103.594 153.469C103.12 153.01 102.883 152.362 102.883 151.523C102.883 150.633 103.214 149.961 103.875 149.508C104.536 149.055 105.544 148.807 106.898 148.766L108.391 148.719V148.258C108.391 147.706 108.26 147.294 108 147.023C107.745 146.747 107.346 146.609 106.805 146.609C106.362 146.609 105.938 146.674 105.531 146.805C105.125 146.935 104.734 147.089 104.359 147.266L103.766 145.953C104.234 145.708 104.747 145.523 105.305 145.398C105.862 145.268 106.388 145.203 106.883 145.203C107.982 145.203 108.81 145.443 109.367 145.922C109.93 146.401 110.211 147.154 110.211 148.18V154H108.898ZM106.164 152.75C106.831 152.75 107.365 152.565 107.766 152.195C108.172 151.82 108.375 151.297 108.375 150.625V149.875L107.266 149.922C106.401 149.953 105.771 150.099 105.375 150.359C104.984 150.615 104.789 151.008 104.789 151.539C104.789 151.924 104.904 152.224 105.133 152.438C105.362 152.646 105.706 152.75 106.164 152.75ZM114.609 154H112.773V141.844H114.609V154ZM119.078 154H117.242V141.844H119.078V154ZM125.484 154.156C124.141 154.156 123.089 153.766 122.328 152.984C121.573 152.198 121.195 151.117 121.195 149.742C121.195 148.331 121.547 147.221 122.25 146.414C122.953 145.607 123.919 145.203 125.148 145.203C126.289 145.203 127.19 145.549 127.852 146.242C128.513 146.935 128.844 147.888 128.844 149.102V150.094H123.086C123.112 150.932 123.339 151.578 123.766 152.031C124.193 152.479 124.794 152.703 125.57 152.703C126.081 152.703 126.555 152.656 126.992 152.562C127.435 152.464 127.909 152.302 128.414 152.078V153.57C127.966 153.784 127.513 153.935 127.055 154.023C126.596 154.112 126.073 154.156 125.484 154.156ZM125.148 146.594C124.565 146.594 124.096 146.779 123.742 147.148C123.393 147.518 123.185 148.057 123.117 148.766H127.039C127.029 148.052 126.857 147.513 126.523 147.148C126.19 146.779 125.732 146.594 125.148 146.594ZM133.844 154.156C132.766 154.156 131.924 153.766 131.32 152.984C130.716 152.203 130.414 151.107 130.414 149.695C130.414 148.279 130.719 147.177 131.328 146.391C131.943 145.599 132.792 145.203 133.875 145.203C135.01 145.203 135.875 145.622 136.469 146.461H136.562C136.474 145.841 136.43 145.352 136.43 144.992V141.844H138.273V154H136.836L136.516 152.867H136.43C135.841 153.727 134.979 154.156 133.844 154.156ZM134.336 152.672C135.091 152.672 135.641 152.461 135.984 152.039C136.328 151.612 136.505 150.922 136.516 149.969V149.711C136.516 148.622 136.339 147.849 135.984 147.391C135.63 146.932 135.076 146.703 134.32 146.703C133.674 146.703 133.177 146.966 132.828 147.492C132.479 148.013 132.305 148.758 132.305 149.727C132.305 150.685 132.474 151.417 132.812 151.922C133.151 152.422 133.659 152.672 134.336 152.672ZM152.719 149.664C152.719 151.076 152.357 152.177 151.633 152.969C150.909 153.76 149.901 154.156 148.609 154.156C147.802 154.156 147.089 153.974 146.469 153.609C145.849 153.245 145.372 152.721 145.039 152.039C144.706 151.357 144.539 150.565 144.539 149.664C144.539 148.263 144.898 147.169 145.617 146.383C146.336 145.596 147.349 145.203 148.656 145.203C149.906 145.203 150.896 145.607 151.625 146.414C152.354 147.216 152.719 148.299 152.719 149.664ZM146.43 149.664C146.43 151.659 147.167 152.656 148.641 152.656C150.099 152.656 150.828 151.659 150.828 149.664C150.828 147.69 150.094 146.703 148.625 146.703C147.854 146.703 147.294 146.958 146.945 147.469C146.602 147.979 146.43 148.711 146.43 149.664ZM162.438 154H160.594V148.688C160.594 148.021 160.458 147.523 160.188 147.195C159.922 146.867 159.497 146.703 158.914 146.703C158.138 146.703 157.57 146.932 157.211 147.391C156.852 147.849 156.672 148.617 156.672 149.695V154H154.836V145.359H156.273L156.531 146.492H156.625C156.885 146.081 157.255 145.763 157.734 145.539C158.214 145.315 158.745 145.203 159.328 145.203C161.401 145.203 162.438 146.258 162.438 148.367V154ZM167.836 145.359H169.836L171.594 150.258C171.859 150.956 172.036 151.612 172.125 152.227H172.188C172.234 151.94 172.32 151.594 172.445 151.188C172.57 150.776 173.232 148.833 174.43 145.359H176.414L172.719 155.148C172.047 156.945 170.927 157.844 169.359 157.844C168.953 157.844 168.557 157.799 168.172 157.711V156.258C168.448 156.32 168.763 156.352 169.117 156.352C170.003 156.352 170.625 155.839 170.984 154.812L171.305 154L167.836 145.359ZM185.391 149.664C185.391 151.076 185.029 152.177 184.305 152.969C183.581 153.76 182.573 154.156 181.281 154.156C180.474 154.156 179.76 153.974 179.141 153.609C178.521 153.245 178.044 152.721 177.711 152.039C177.378 151.357 177.211 150.565 177.211 149.664C177.211 148.263 177.57 147.169 178.289 146.383C179.008 145.596 180.021 145.203 181.328 145.203C182.578 145.203 183.568 145.607 184.297 146.414C185.026 147.216 185.391 148.299 185.391 149.664ZM179.102 149.664C179.102 151.659 179.839 152.656 181.312 152.656C182.771 152.656 183.5 151.659 183.5 149.664C183.5 147.69 182.766 146.703 181.297 146.703C180.526 146.703 179.966 146.958 179.617 147.469C179.273 147.979 179.102 148.711 179.102 149.664ZM193.602 154L193.344 152.867H193.25C192.995 153.268 192.63 153.583 192.156 153.812C191.688 154.042 191.151 154.156 190.547 154.156C189.5 154.156 188.719 153.896 188.203 153.375C187.688 152.854 187.43 152.065 187.43 151.008V145.359H189.281V150.688C189.281 151.349 189.417 151.846 189.688 152.18C189.958 152.508 190.383 152.672 190.961 152.672C191.732 152.672 192.297 152.443 192.656 151.984C193.021 151.521 193.203 150.747 193.203 149.664V145.359H195.047V154H193.602ZM202.047 145.203C202.417 145.203 202.721 145.229 202.961 145.281L202.781 146.992C202.521 146.93 202.25 146.898 201.969 146.898C201.234 146.898 200.638 147.138 200.18 147.617C199.727 148.096 199.5 148.719 199.5 149.484V154H197.664V145.359H199.102L199.344 146.883H199.438C199.724 146.367 200.096 145.958 200.555 145.656C201.018 145.354 201.516 145.203 202.047 145.203ZM216.328 154H214.484V148.688C214.484 148.021 214.349 147.523 214.078 147.195C213.812 146.867 213.388 146.703 212.805 146.703C212.029 146.703 211.461 146.932 211.102 147.391C210.742 147.849 210.562 148.617 210.562 149.695V154H208.727V145.359H210.164L210.422 146.492H210.516C210.776 146.081 211.146 145.763 211.625 145.539C212.104 145.315 212.635 145.203 213.219 145.203C215.292 145.203 216.328 146.258 216.328 148.367V154ZM226.547 149.664C226.547 151.076 226.185 152.177 225.461 152.969C224.737 153.76 223.729 154.156 222.438 154.156C221.63 154.156 220.917 153.974 220.297 153.609C219.677 153.245 219.201 152.721 218.867 152.039C218.534 151.357 218.367 150.565 218.367 149.664C218.367 148.263 218.727 147.169 219.445 146.383C220.164 145.596 221.177 145.203 222.484 145.203C223.734 145.203 224.724 145.607 225.453 146.414C226.182 147.216 226.547 148.299 226.547 149.664ZM220.258 149.664C220.258 151.659 220.995 152.656 222.469 152.656C223.927 152.656 224.656 151.659 224.656 149.664C224.656 147.69 223.922 146.703 222.453 146.703C221.682 146.703 221.122 146.958 220.773 147.469C220.43 147.979 220.258 148.711 220.258 149.664ZM231.578 154.156C230.5 154.156 229.659 153.766 229.055 152.984C228.451 152.203 228.148 151.107 228.148 149.695C228.148 148.279 228.453 147.177 229.062 146.391C229.677 145.599 230.526 145.203 231.609 145.203C232.745 145.203 233.609 145.622 234.203 146.461H234.297C234.208 145.841 234.164 145.352 234.164 144.992V141.844H236.008V154H234.57L234.25 152.867H234.164C233.576 153.727 232.714 154.156 231.578 154.156ZM232.07 152.672C232.826 152.672 233.375 152.461 233.719 152.039C234.062 151.612 234.24 150.922 234.25 149.969V149.711C234.25 148.622 234.073 147.849 233.719 147.391C233.365 146.932 232.81 146.703 232.055 146.703C231.409 146.703 230.911 146.966 230.562 147.492C230.214 148.013 230.039 148.758 230.039 149.727C230.039 150.685 230.208 151.417 230.547 151.922C230.885 152.422 231.393 152.672 232.07 152.672ZM242.406 154.156C241.062 154.156 240.01 153.766 239.25 152.984C238.495 152.198 238.117 151.117 238.117 149.742C238.117 148.331 238.469 147.221 239.172 146.414C239.875 145.607 240.841 145.203 242.07 145.203C243.211 145.203 244.112 145.549 244.773 146.242C245.435 146.935 245.766 147.888 245.766 149.102V150.094H240.008C240.034 150.932 240.26 151.578 240.688 152.031C241.115 152.479 241.716 152.703 242.492 152.703C243.003 152.703 243.477 152.656 243.914 152.562C244.357 152.464 244.831 152.302 245.336 152.078V153.57C244.888 153.784 244.435 153.935 243.977 154.023C243.518 154.112 242.995 154.156 242.406 154.156ZM242.07 146.594C241.487 146.594 241.018 146.779 240.664 147.148C240.315 147.518 240.107 148.057 240.039 148.766H243.961C243.951 148.052 243.779 147.513 243.445 147.148C243.112 146.779 242.654 146.594 242.07 146.594Z" fill="white"/>
<line x1="321.014" y1="98.014" x2="460.015" y2="99.9445" stroke="#10B981" stroke-width="2" stroke-linecap="round" stroke-dasharray="8 8"/>
<line x1="662" y1="99" x2="800" y2="99" stroke="#10B981" stroke-width="2" stroke-linecap="round" stroke-dasharray="8 8"/>
<circle cx="561" cy="100" r="100" fill="#10B981"/>
<path d="M568.274 67.0909H566.456V63.4545C566.456 60.4545 564.001 58 561.001 58C558.001 58 555.547 60.4545 555.547 63.4545V67.0909H553.728C552.728 67.0909 551.91 67.9091 551.91 68.9091V76.1818C551.91 77.1818 552.728 78 553.728 78H568.274C569.274 78 570.092 77.1818 570.092 76.1818V68.9091C570.092 67.9091 569.274 67.0909 568.274 67.0909ZM558.274 63.4545C558.274 61.9091 559.456 60.7273 561.001 60.7273C562.547 60.7273 563.728 61.9091 563.728 63.4545V67.0909H558.274V63.4545Z" fill="white"/>
<path d="M503.586 114V102.578H505.453V112.398H510.289V114H503.586ZM513.898 114H512.062V105.359H513.898V114ZM511.953 103.07C511.953 102.742 512.042 102.49 512.219 102.312C512.401 102.135 512.659 102.047 512.992 102.047C513.315 102.047 513.565 102.135 513.742 102.312C513.924 102.49 514.016 102.742 514.016 103.07C514.016 103.383 513.924 103.63 513.742 103.812C513.565 103.99 513.315 104.078 512.992 104.078C512.659 104.078 512.401 103.99 512.219 103.812C512.042 103.63 511.953 103.383 511.953 103.07ZM523.828 105.359V106.367L522.352 106.641C522.487 106.823 522.599 107.047 522.688 107.312C522.776 107.578 522.82 107.859 522.82 108.156C522.82 109.047 522.513 109.747 521.898 110.258C521.284 110.768 520.438 111.023 519.359 111.023C519.083 111.023 518.833 111.003 518.609 110.961C518.214 111.206 518.016 111.492 518.016 111.82C518.016 112.018 518.107 112.167 518.289 112.266C518.477 112.365 518.818 112.414 519.312 112.414H520.82C521.773 112.414 522.497 112.617 522.992 113.023C523.487 113.43 523.734 114.016 523.734 114.781C523.734 115.76 523.331 116.516 522.523 117.047C521.716 117.578 520.549 117.844 519.023 117.844C517.846 117.844 516.948 117.635 516.328 117.219C515.708 116.802 515.398 116.208 515.398 115.438C515.398 114.906 515.565 114.458 515.898 114.094C516.237 113.734 516.708 113.484 517.312 113.344C517.068 113.24 516.865 113.073 516.703 112.844C516.547 112.609 516.469 112.365 516.469 112.109C516.469 111.786 516.56 111.513 516.742 111.289C516.924 111.065 517.195 110.844 517.555 110.625C517.107 110.432 516.742 110.12 516.461 109.688C516.185 109.25 516.047 108.74 516.047 108.156C516.047 107.219 516.341 106.492 516.93 105.977C517.523 105.461 518.367 105.203 519.461 105.203C519.706 105.203 519.961 105.221 520.227 105.258C520.497 105.289 520.701 105.323 520.836 105.359H523.828ZM517.039 115.344C517.039 115.74 517.216 116.044 517.57 116.258C517.93 116.471 518.432 116.578 519.078 116.578C520.078 116.578 520.823 116.435 521.312 116.148C521.802 115.862 522.047 115.482 522.047 115.008C522.047 114.633 521.911 114.365 521.641 114.203C521.375 114.047 520.878 113.969 520.148 113.969H518.758C518.232 113.969 517.812 114.091 517.5 114.336C517.193 114.586 517.039 114.922 517.039 115.344ZM517.828 108.156C517.828 108.698 517.966 109.115 518.242 109.406C518.523 109.698 518.924 109.844 519.445 109.844C520.508 109.844 521.039 109.276 521.039 108.141C521.039 107.578 520.906 107.146 520.641 106.844C520.38 106.536 519.982 106.383 519.445 106.383C518.914 106.383 518.51 106.534 518.234 106.836C517.964 107.138 517.828 107.578 517.828 108.156ZM533.039 114H531.195V108.688C531.195 108.021 531.06 107.523 530.789 107.195C530.523 106.867 530.099 106.703 529.516 106.703C528.745 106.703 528.177 106.935 527.812 107.398C527.453 107.857 527.273 108.628 527.273 109.711V114H525.438V101.844H527.273V104.93C527.273 105.424 527.242 105.953 527.18 106.516H527.297C527.547 106.099 527.893 105.776 528.336 105.547C528.784 105.318 529.305 105.203 529.898 105.203C531.992 105.203 533.039 106.258 533.039 108.367V114ZM538.812 112.672C539.26 112.672 539.708 112.602 540.156 112.461V113.844C539.953 113.932 539.69 114.005 539.367 114.062C539.049 114.125 538.719 114.156 538.375 114.156C536.635 114.156 535.766 113.24 535.766 111.406V106.75H534.586V105.938L535.852 105.266L536.477 103.438H537.609V105.359H540.07V106.75H537.609V111.375C537.609 111.818 537.719 112.146 537.938 112.359C538.161 112.568 538.453 112.672 538.812 112.672ZM549.492 114H547.648V108.688C547.648 108.021 547.513 107.523 547.242 107.195C546.977 106.867 546.552 106.703 545.969 106.703C545.193 106.703 544.625 106.932 544.266 107.391C543.906 107.849 543.727 108.617 543.727 109.695V114H541.891V105.359H543.328L543.586 106.492H543.68C543.94 106.081 544.31 105.763 544.789 105.539C545.268 105.315 545.799 105.203 546.383 105.203C548.456 105.203 549.492 106.258 549.492 108.367V114ZM553.883 114H552.047V105.359H553.883V114ZM551.938 103.07C551.938 102.742 552.026 102.49 552.203 102.312C552.385 102.135 552.643 102.047 552.977 102.047C553.299 102.047 553.549 102.135 553.727 102.312C553.909 102.49 554 102.742 554 103.07C554 103.383 553.909 103.63 553.727 103.812C553.549 103.99 553.299 104.078 552.977 104.078C552.643 104.078 552.385 103.99 552.203 103.812C552.026 103.63 551.938 103.383 551.938 103.07ZM564.117 114H562.273V108.688C562.273 108.021 562.138 107.523 561.867 107.195C561.602 106.867 561.177 106.703 560.594 106.703C559.818 106.703 559.25 106.932 558.891 107.391C558.531 107.849 558.352 108.617 558.352 109.695V114H556.516V105.359H557.953L558.211 106.492H558.305C558.565 106.081 558.935 105.763 559.414 105.539C559.893 105.315 560.424 105.203 561.008 105.203C563.081 105.203 564.117 106.258 564.117 108.367V114ZM573.969 105.359V106.367L572.492 106.641C572.628 106.823 572.74 107.047 572.828 107.312C572.917 107.578 572.961 107.859 572.961 108.156C572.961 109.047 572.654 109.747 572.039 110.258C571.424 110.768 570.578 111.023 569.5 111.023C569.224 111.023 568.974 111.003 568.75 110.961C568.354 111.206 568.156 111.492 568.156 111.82C568.156 112.018 568.247 112.167 568.43 112.266C568.617 112.365 568.958 112.414 569.453 112.414H570.961C571.914 112.414 572.638 112.617 573.133 113.023C573.628 113.43 573.875 114.016 573.875 114.781C573.875 115.76 573.471 116.516 572.664 117.047C571.857 117.578 570.69 117.844 569.164 117.844C567.987 117.844 567.089 117.635 566.469 117.219C565.849 116.802 565.539 116.208 565.539 115.438C565.539 114.906 565.706 114.458 566.039 114.094C566.378 113.734 566.849 113.484 567.453 113.344C567.208 113.24 567.005 113.073 566.844 112.844C566.688 112.609 566.609 112.365 566.609 112.109C566.609 111.786 566.701 111.513 566.883 111.289C567.065 111.065 567.336 110.844 567.695 110.625C567.247 110.432 566.883 110.12 566.602 109.688C566.326 109.25 566.188 108.74 566.188 108.156C566.188 107.219 566.482 106.492 567.07 105.977C567.664 105.461 568.508 105.203 569.602 105.203C569.846 105.203 570.102 105.221 570.367 105.258C570.638 105.289 570.841 105.323 570.977 105.359H573.969ZM567.18 115.344C567.18 115.74 567.357 116.044 567.711 116.258C568.07 116.471 568.573 116.578 569.219 116.578C570.219 116.578 570.964 116.435 571.453 116.148C571.943 115.862 572.188 115.482 572.188 115.008C572.188 114.633 572.052 114.365 571.781 114.203C571.516 114.047 571.018 113.969 570.289 113.969H568.898C568.372 113.969 567.953 114.091 567.641 114.336C567.333 114.586 567.18 114.922 567.18 115.344ZM567.969 108.156C567.969 108.698 568.107 109.115 568.383 109.406C568.664 109.698 569.065 109.844 569.586 109.844C570.648 109.844 571.18 109.276 571.18 108.141C571.18 107.578 571.047 107.146 570.781 106.844C570.521 106.536 570.122 106.383 569.586 106.383C569.055 106.383 568.651 106.534 568.375 106.836C568.104 107.138 567.969 107.578 567.969 108.156ZM589.445 114H587.156L581.539 104.898H581.477L581.516 105.406C581.589 106.375 581.625 107.26 581.625 108.062V114H579.93V102.578H582.195L587.797 111.633H587.844C587.833 111.513 587.812 111.078 587.781 110.328C587.75 109.573 587.734 108.984 587.734 108.562V102.578H589.445V114ZM599.93 109.664C599.93 111.076 599.568 112.177 598.844 112.969C598.12 113.76 597.112 114.156 595.82 114.156C595.013 114.156 594.299 113.974 593.68 113.609C593.06 113.245 592.583 112.721 592.25 112.039C591.917 111.357 591.75 110.565 591.75 109.664C591.75 108.263 592.109 107.169 592.828 106.383C593.547 105.596 594.56 105.203 595.867 105.203C597.117 105.203 598.107 105.607 598.836 106.414C599.565 107.216 599.93 108.299 599.93 109.664ZM593.641 109.664C593.641 111.659 594.378 112.656 595.852 112.656C597.31 112.656 598.039 111.659 598.039 109.664C598.039 107.69 597.305 106.703 595.836 106.703C595.065 106.703 594.505 106.958 594.156 107.469C593.812 107.979 593.641 108.711 593.641 109.664ZM604.961 114.156C603.883 114.156 603.042 113.766 602.438 112.984C601.833 112.203 601.531 111.107 601.531 109.695C601.531 108.279 601.836 107.177 602.445 106.391C603.06 105.599 603.909 105.203 604.992 105.203C606.128 105.203 606.992 105.622 607.586 106.461H607.68C607.591 105.841 607.547 105.352 607.547 104.992V101.844H609.391V114H607.953L607.633 112.867H607.547C606.958 113.727 606.096 114.156 604.961 114.156ZM605.453 112.672C606.208 112.672 606.758 112.461 607.102 112.039C607.445 111.612 607.622 110.922 607.633 109.969V109.711C607.633 108.622 607.456 107.849 607.102 107.391C606.747 106.932 606.193 106.703 605.438 106.703C604.792 106.703 604.294 106.966 603.945 107.492C603.596 108.013 603.422 108.758 603.422 109.727C603.422 110.685 603.591 111.417 603.93 111.922C604.268 112.422 604.776 112.672 605.453 112.672ZM615.789 114.156C614.445 114.156 613.393 113.766 612.633 112.984C611.878 112.198 611.5 111.117 611.5 109.742C611.5 108.331 611.852 107.221 612.555 106.414C613.258 105.607 614.224 105.203 615.453 105.203C616.594 105.203 617.495 105.549 618.156 106.242C618.818 106.935 619.148 107.888 619.148 109.102V110.094H613.391C613.417 110.932 613.643 111.578 614.07 112.031C614.497 112.479 615.099 112.703 615.875 112.703C616.385 112.703 616.859 112.656 617.297 112.562C617.74 112.464 618.214 112.302 618.719 112.078V113.57C618.271 113.784 617.818 113.935 617.359 114.023C616.901 114.112 616.378 114.156 615.789 114.156ZM615.453 106.594C614.87 106.594 614.401 106.779 614.047 107.148C613.698 107.518 613.49 108.057 613.422 108.766H617.344C617.333 108.052 617.161 107.513 616.828 107.148C616.495 106.779 616.036 106.594 615.453 106.594ZM535.531 128.016C534.458 128.016 533.615 128.396 533 129.156C532.385 129.917 532.078 130.966 532.078 132.305C532.078 133.706 532.372 134.766 532.961 135.484C533.555 136.203 534.411 136.562 535.531 136.562C536.016 136.562 536.484 136.516 536.938 136.422C537.391 136.323 537.862 136.198 538.352 136.047V137.648C537.456 137.987 536.44 138.156 535.305 138.156C533.633 138.156 532.349 137.651 531.453 136.641C530.557 135.625 530.109 134.174 530.109 132.289C530.109 131.102 530.326 130.062 530.758 129.172C531.195 128.281 531.826 127.599 532.648 127.125C533.471 126.651 534.438 126.414 535.547 126.414C536.714 126.414 537.792 126.659 538.781 127.148L538.109 128.703C537.724 128.521 537.315 128.362 536.883 128.227C536.456 128.086 536.005 128.016 535.531 128.016ZM548.281 133.664C548.281 135.076 547.919 136.177 547.195 136.969C546.471 137.76 545.464 138.156 544.172 138.156C543.365 138.156 542.651 137.974 542.031 137.609C541.411 137.245 540.935 136.721 540.602 136.039C540.268 135.357 540.102 134.565 540.102 133.664C540.102 132.263 540.461 131.169 541.18 130.383C541.898 129.596 542.911 129.203 544.219 129.203C545.469 129.203 546.458 129.607 547.188 130.414C547.917 131.216 548.281 132.299 548.281 133.664ZM541.992 133.664C541.992 135.659 542.729 136.656 544.203 136.656C545.661 136.656 546.391 135.659 546.391 133.664C546.391 131.69 545.656 130.703 544.188 130.703C543.417 130.703 542.857 130.958 542.508 131.469C542.164 131.979 541.992 132.711 541.992 133.664ZM558 138H556.156V132.688C556.156 132.021 556.021 131.523 555.75 131.195C555.484 130.867 555.06 130.703 554.477 130.703C553.701 130.703 553.133 130.932 552.773 131.391C552.414 131.849 552.234 132.617 552.234 133.695V138H550.398V129.359H551.836L552.094 130.492H552.188C552.448 130.081 552.818 129.763 553.297 129.539C553.776 129.315 554.307 129.203 554.891 129.203C556.964 129.203 558 130.258 558 132.367V138ZM568.156 138H566.312V132.688C566.312 132.021 566.177 131.523 565.906 131.195C565.641 130.867 565.216 130.703 564.633 130.703C563.857 130.703 563.289 130.932 562.93 131.391C562.57 131.849 562.391 132.617 562.391 133.695V138H560.555V129.359H561.992L562.25 130.492H562.344C562.604 130.081 562.974 129.763 563.453 129.539C563.932 129.315 564.464 129.203 565.047 129.203C567.12 129.203 568.156 130.258 568.156 132.367V138ZM574.484 138.156C573.141 138.156 572.089 137.766 571.328 136.984C570.573 136.198 570.195 135.117 570.195 133.742C570.195 132.331 570.547 131.221 571.25 130.414C571.953 129.607 572.919 129.203 574.148 129.203C575.289 129.203 576.19 129.549 576.852 130.242C577.513 130.935 577.844 131.888 577.844 133.102V134.094H572.086C572.112 134.932 572.339 135.578 572.766 136.031C573.193 136.479 573.794 136.703 574.57 136.703C575.081 136.703 575.555 136.656 575.992 136.562C576.435 136.464 576.909 136.302 577.414 136.078V137.57C576.966 137.784 576.513 137.935 576.055 138.023C575.596 138.112 575.073 138.156 574.484 138.156ZM574.148 130.594C573.565 130.594 573.096 130.779 572.742 131.148C572.393 131.518 572.185 132.057 572.117 132.766H576.039C576.029 132.052 575.857 131.513 575.523 131.148C575.19 130.779 574.732 130.594 574.148 130.594ZM583.414 138.156C582.107 138.156 581.112 137.776 580.43 137.016C579.753 136.25 579.414 135.154 579.414 133.727C579.414 132.273 579.768 131.156 580.477 130.375C581.19 129.594 582.219 129.203 583.562 129.203C584.474 129.203 585.294 129.372 586.023 129.711L585.469 131.188C584.693 130.885 584.052 130.734 583.547 130.734C582.052 130.734 581.305 131.727 581.305 133.711C581.305 134.68 581.49 135.409 581.859 135.898C582.234 136.383 582.781 136.625 583.5 136.625C584.318 136.625 585.091 136.422 585.82 136.016V137.617C585.492 137.81 585.141 137.948 584.766 138.031C584.396 138.115 583.945 138.156 583.414 138.156ZM591.07 136.672C591.518 136.672 591.966 136.602 592.414 136.461V137.844C592.211 137.932 591.948 138.005 591.625 138.062C591.307 138.125 590.977 138.156 590.633 138.156C588.893 138.156 588.023 137.24 588.023 135.406V130.75H586.844V129.938L588.109 129.266L588.734 127.438H589.867V129.359H592.328V130.75H589.867V135.375C589.867 135.818 589.977 136.146 590.195 136.359C590.419 136.568 590.711 136.672 591.07 136.672Z" fill="white"/>
</svg>
